<svg width="18" height="12" viewBox="0 0 18 12" fill="none" xmlns="http://www.w3.org/2000/svg">
<path d="M7.40368 6.10352e-05V0.862895V5.27933H5.82947V1.38256C5.57066 1.49998 5.31841 1.63354 5.07401 1.78255C3.97402 2.46704 3.06059 3.45149 2.42551 4.63696C1.79044 5.82242 1.45608 7.16714 1.45605 8.53598H15.9294C15.9294 7.16714 15.595 5.82242 14.96 4.63696C14.3249 3.45149 13.4115 2.46704 12.3115 1.78255C12.067 1.63379 11.8148 1.5005 11.556 1.38332V5.27933H9.9818V0.871986V6.10352e-05H7.40368Z" fill="#F45330"/>
<path d="M0.799996 10.0632C0.356798 10.0632 0 10.4031 0 10.826C0 11.249 0.356798 11.5896 0.799996 11.5896H16.5843C17.0275 11.5896 17.3843 11.249 17.3843 10.826C17.3843 10.4031 17.0275 10.0632 16.5843 10.0632H0.799996Z" fill="#F45330"/>
</svg>
